<?xml version="1.0" encoding="UTF-8"?>
<svg width="512" height="512" viewBox="0 0 512 512" fill="none" xmlns="http://www.w3.org/2000/svg">
  <rect width="512" height="512" fill="white" fill-opacity="0"/>
  <path d="M435.2 102.4H384V64c0-14.14-11.46-25.6-25.6-25.6H128c-42.41 0-76.8 34.39-76.8 76.8v281.6c0 42.41 34.39 76.8 76.8 76.8h307.2c14.14 0 25.6-11.46 25.6-25.6V128c0-14.14-11.46-25.6-25.6-25.6zM128 64h230.4v307.2H128c-14.14 0-27.44 3.84-38.4 10.24V115.2c0-28.28 22.92-51.2 51.2-51.2zm307.2 384H128c-28.28 0-51.2-22.92-51.2-51.2 0-28.28 22.92-51.2 51.2-51.2h307.2v102.4zm0-128H358.4V102.4h76.8v217.6z" fill="#4285F4"/>
  <path d="M153.6 128h153.6c7.07 0 12.8-5.73 12.8-12.8 0-7.07-5.73-12.8-12.8-12.8H153.6c-7.07 0-12.8 5.73-12.8 12.8 0 7.07 5.73 12.8 12.8 12.8zM153.6 179.2h153.6c7.07 0 12.8-5.73 12.8-12.8 0-7.07-5.73-12.8-12.8-12.8H153.6c-7.07 0-12.8 5.73-12.8 12.8 0 7.07 5.73 12.8 12.8 12.8zM153.6 230.4h153.6c7.07 0 12.8-5.73 12.8-12.8 0-7.07-5.73-12.8-12.8-12.8H153.6c-7.07 0-12.8 5.73-12.8 12.8 0 7.07 5.73 12.8 12.8 12.8z" fill="#34A853"/>
</svg> 